<svg viewBox="0 0 24 24" xmlns="http://www.w3.org/2000/svg"><path d="M20 11.7V8.46a4 4 0 1 0-4.42-6.61A8 8 0 0 0 4 9v2.7l-1.44 2.16A3.22 3.22 0 0 0 2 15.7a3.36 3.36 0 0 0 1 2.35 3.34 3.34 0 0 0 2.3.95h1.8a5 5 0 0 0 9.8 0h1.8a3.3 3.3 0 0 0 3.3-3.3 3.24 3.24 0 0 0-.56-1.83ZM20 5a2 2 0 1 1-2-2 2 2 0 0 1 2 2Zm-8 16a3 3 0 0 1-2.83-2h5.66A3 3 0 0 1 12 21Zm6.7-4H5.3a1.29 1.29 0 0 1-.91-.37A1.31 1.31 0 0 1 4 15.7a1.26 1.26 0 0 1 .22-.7l1.61-2.42A1 1 0 0 0 6 12V9a6 6 0 0 1 6-6 6.07 6.07 0 0 1 2.31.47A3.91 3.91 0 0 0 14 5a4 4 0 0 0 4 4v3a1 1 0 0 0 .17.55L19.78 15a1.2 1.2 0 0 1 .22.72A1.3 1.3 0 0 1 18.7 17Z" fill="#ffffff" class="fill-000000"></path></svg>