<svg xmlns="http://www.w3.org/2000/svg" version="1.1" xmlns:xlink="http://www.w3.org/1999/xlink" xmlns:svgjs="http://svgjs.dev/svgjs" width="128" height="128" viewBox="0 0 128 128"><g transform="matrix(0.8046875,0,0,0.8046875,12.760752631578946,42.83800814393662)"><svg viewBox="0 0 95 39" data-background-color="#ffffff" preserveAspectRatio="xMidYMid meet" height="52" width="128" xmlns="http://www.w3.org/2000/svg" xmlns:xlink="http://www.w3.org/1999/xlink"><g id="tight-bounds" transform="matrix(1,0,0,1,-0.24049999999999727,0.2237982347775187)"><svg viewBox="0 0 95.481 38.552403530444955" height="38.552403530444955" width="95.481"><g><svg viewBox="0 0 95.481 38.552403530444955" height="38.552403530444955" width="95.481"><g><svg viewBox="0 0 95.481 38.552403530444955" height="38.552403530444955" width="95.481"><g id="textblocktransform"><svg viewBox="0 0 95.481 38.552403530444955" height="38.552403530444955" width="95.481" id="textblock"><g><svg viewBox="0 0 95.481 38.552403530444955" height="38.552403530444955" width="95.481"><g><svg viewBox="0 0 95.481 38.552403530444955" height="38.552403530444955" width="95.481"><g><svg xmlns="http://www.w3.org/2000/svg" xmlns:xlink="http://www.w3.org/1999/xlink" version="1.1" x="0" y="0" viewBox="18.884529946162072 37.59999999999994 63.154700538379245 25.500000000000064" enable-background="new 0 0 100 100" xml:space="preserve" height="38.552403530444955" width="95.481" class="icon-icon-0" data-fill-palette-color="accent" id="icon-0"><path fill-rule="evenodd" clip-rule="evenodd" d="M59.3 42.5c-0.5-0.4-1.2-0.1-1.7 0-0.6 0.2-1.2 0.4-1.7 0.6-1.1 0.4-2.1 0.9-2.9 1.4-0.1 0.1-0.1 0.1-0.2 0.2 0 0-0.2 0-0.2 0-0.1 0.1-0.5 0.3-0.7 0.5-0.2 0.1-0.3 0.4-0.5 0.6-0.1 0.1-0.3 0.2-0.4 0.3-0.1 0.1-0.2 0.3-0.3 0.4-0.1 0.1-0.2 0.1-0.3 0.2-0.1 0.1-0.2 0.3-0.3 0.4-0.1 0.1-0.2 0-0.3 0.1-0.1 0.1-0.2 0.3-0.3 0.4-0.1 0.1-0.2 0-0.3 0.1-0.1 0-0.1 0.1-0.2 0.2-0.1 0.1-0.2 0.2-0.3 0.4-0.1 0.1-0.2 0.3-0.3 0.4-0.1 0.1 0 0.2-0.1 0.3-0.1 0.1-0.2 0.2-0.3 0.4-0.1 0.2-0.3 0.4-0.4 0.6-0.2 0.3-0.6 0.7-0.9 1.1-0.3 0.3-0.5 0.4-0.8 0.7-0.3 0.3-0.6 0.7-0.9 1.1-0.1 0.1-0.1 0.1-0.2 0.2-0.1 0.2-0.3 0.4-0.4 0.6-0.1 0.1-0.1 0.3-0.2 0.4C44.2 53.9 44.1 54 44 54c-0.1 0.1-0.1 0.2-0.2 0.3-0.2 0.2-0.3 0.3-0.5 0.5-0.1 0.1-0.2 0.3-0.4 0.4-0.1 0-0.3 0.2-0.4 0.3 0 0 0 0.2-0.1 0.2 0 0-0.1 0-0.2 0-0.1 0.1-0.2 0.2-0.2 0.3 0 0-0.2 0-0.2 0 0 0-0.1 0.2-0.1 0.2 0 0-0.2 0-0.2 0 0 0 0 0.1 0 0.1 0 0-0.2 0-0.2 0-0.1 0.1-0.1 0.1-0.2 0.2 0 0-0.1 0.1-0.1 0.1-0.2 0.2-0.4 0.2-0.6 0.4-0.1 0.1-0.2 0.2-0.2 0.3-0.1 0-0.1 0.1-0.2 0.1-0.1 0.1-0.4 0.3-0.6 0.4 0 0-0.2 0.1-0.3 0.1 0 0 0 0.1 0 0.1 0 0-0.2 0-0.2 0 0 0 0 0.1 0 0.1-0.1 0.1-0.2 0-0.3 0.1-0.1 0.1-0.2 0.2-0.2 0.3-0.1 0-0.1 0.1-0.2 0.1 0 0-0.2 0.1-0.3 0.1-0.1 0.1-0.1 0.1-0.2 0.2-0.1 0.1-0.3 0.1-0.5 0.2 0 0 0 0.1-0.1 0.1-0.1 0-0.7 0.4-0.9 0.5 0 0-0.2 0.1-0.3 0.1 0 0 0 0.1 0 0.1 0 0-0.2 0-0.2 0-0.1 0.1-0.1 0.1-0.2 0.2-0.1 0.1-0.4 0.3-0.6 0.4-0.1 0.1-0.2 0.1-0.5 0.2-0.3 0.1-0.7 0.4-1.1 0.5-0.2 0.1-0.4 0.1-0.6 0.2 0 0-0.2 0-0.2 0 0 0.1-0.2 0.1-0.4 0.2C32 61.8 31.5 61.9 31 62c0 0 0 0.1-0.1 0.1-1.1 0.1-2.4 0.3-3.7 0.4-0.3 0-0.6 0-0.9 0 0 0 0 0.1-0.1 0.1 0 0-0.2 0-0.3 0-0.1-0.1-1 0-1.3-0.1-0.8-0.1-1.9-0.4-2.9-0.7-0.2-0.1-0.4-0.1-0.6-0.1-0.1 0-0.2-0.1-0.5-0.1-0.1 0-0.1 0-0.2-0.1-0.3-0.2-0.9-0.3-1.1-0.6 0 0-0.1-0.1-0.1-0.1-0.1-0.1-0.2-0.5-0.2-0.6-0.1-0.2-0.2-1 0-1.4 0.1-0.3 0.2-0.4 0.5-0.7 0.4-0.4 1.1-0.3 1.8-0.1 0 0 0.2 0 0.2 0 0 0 0 0.1 0 0.1 0.7 0.2 1.3 0.4 2 0.4 0 0 0.2 0 0.2 0 0.2 0.2 1.7 0 2.3-0.1 1.1-0.1 2-0.1 2.8-0.3 0.1 0 0.1-0.1 0.3-0.1 0.3-0.1 0.5-0.1 0.9-0.2 0.2-0.1 0.4-0.1 0.6-0.2 0.1-0.1 0.1-0.1 0.3-0.1 0.1 0 0.4-0.2 0.6-0.3 0.3-0.1 0.7-0.3 1-0.4 0.1 0 0.2-0.1 0.3-0.1 0.1 0 0.1-0.2 0.2-0.2 0.2-0.1 0.4-0.1 0.5-0.2 0 0 0.1-0.1 0.2-0.2 0.1-0.1 0.2-0.2 0.4-0.3 0 0 0-0.1 0.1-0.1 0.1 0 0.2-0.2 0.3-0.2 0.1 0 0.1-0.2 0.2-0.2 0.2-0.1 0.4-0.1 0.5-0.2 0.1 0 0.1-0.2 0.2-0.2 0.4-0.3 1-0.6 1.4-1 0.1-0.1 0.1-0.1 0.2-0.2 0.1-0.1 0.4-0.2 0.6-0.4 0.1-0.1 0.2-0.3 0.3-0.4 0.1-0.1 0.2-0.1 0.3-0.1 0.1 0 0.1-0.1 0.2-0.2 0.2-0.2 0.4-0.3 0.6-0.5 0.2-0.2 0.4-0.5 0.7-0.8 0.2-0.2 0.3-0.4 0.5-0.6 0.1-0.1 0.2-0.3 0.2-0.4 0.1-0.1 0.2-0.2 0.2-0.3 0.2-0.3 0.4-0.6 0.6-0.9 0.1-0.1 0.2-0.2 0.3-0.2 0.1 0 0.4-0.4 0.6-0.6 0.5-0.6 1-1.1 1.5-1.7 0.1-0.1 0.4-0.4 0.4-0.6 0-0.1 0.3-0.5 0.5-0.7 0.2-0.2 0.3-0.4 0.5-0.6 0.1-0.1 0.2-0.3 0.4-0.5 0 0 0.2 0 0.2 0 0.1-0.1 0.1-0.3 0.2-0.4 0 0 0.2 0 0.2 0 0.1-0.2 0.3-0.4 0.5-0.6 0.1-0.1 0.1-0.1 0.2-0.2 0.1-0.1 0.3-0.3 0.4-0.5 0 0 0.2 0 0.2 0 0 0 0-0.2 0.1-0.2 0.1-0.1 0.2 0 0.3-0.1 0.1-0.1 0.1-0.2 0.2-0.3 0.1-0.1 0.2-0.1 0.3-0.1 0.1-0.1 0.2-0.1 0.3-0.2 0.2-0.2 0.7-0.5 1.1-0.7 0 0 0.2 0 0.2 0 0 0 0-0.1 0-0.1 0 0 0.2 0 0.2 0 0 0 0-0.1 0-0.1 0 0 0.2 0 0.2 0 0 0 0-0.1 0-0.1 0.5-0.2 1-0.4 1.6-0.7 0 0 0-0.1 0.1-0.1 0.3-0.1 0.6-0.3 0.9-0.4 0 0 0.2 0 0.2 0 0 0 0-0.1 0-0.1 0.3-0.1 0.5-0.2 0.8-0.3 0 0 0.3-0.1 0.3-0.1 0.1-0.1 0.5-0.3 0.8-0.4 0.7-0.2 1.4-0.3 2-0.4 0.1 0 0.1-0.1 0.3-0.1 0.5-0.1 1.3-0.2 1.9-0.1 0.2 0 0.4 0.1 0.8 0 1-0.3 3.2-0.3 4.4-0.3 0.6 0 1.1 0 1.6 0.1 0.1 0 0.3 0.1 0.5 0.2 0.1 0 0.1 0.1 0.2 0.2 0.2 0.1 0.3 0.1 0.5 0.2 0.1 0.1 0 0.2 0.1 0.3 0 0 0.2 0.1 0.2 0.2 0.2 0.5 0.2 1.6 0.1 2.2 0 0.1-0.1 0.2-0.2 0.4 0 0-0.1 0-0.1 0.1 0 0.1-0.1 0.2-0.2 0.3-0.2 0.2-0.4 0.8-0.5 1.1-0.1 0.2-0.1 0.3-0.1 0.5 0 0.1-0.1 0.1-0.2 0.2 0 0.1 0 0.2-0.1 0.3-0.1 0.2-0.1 0.3-0.1 0.5-0.1 0.2-0.1 0.4-0.1 0.5 0 0.1-0.1 0.1-0.2 0.2 0 0 0 0.2 0 0.2-0.1 0.1-0.1 0.3-0.2 0.6 0 0-0.2 0.2-0.2 0.2 0 0.1 0 0.2 0 0.3 0 0.1-0.1 0.1-0.2 0.2-0.1 0.2-0.1 0.5-0.2 0.7 0 0.1-0.1 0.1-0.2 0.2 0 0 0 0.2 0 0.2-0.4 0.4-0.2 1.7-0.2 2.7 0.1 0.9 0.1 1.6 0.4 2.3 0 0.1 0.1 0.1 0.1 0.2 0 0 0.1 0.1 0.1 0.1 0.1 0.1 0 0.2 0.1 0.3 0 0.1 0.2 0.1 0.2 0.2 0.2 0.3 0.4 0.7 0.7 0.9 0.1 0.2 0.3 0.3 0.5 0.4 0.3 0.3 0.6 0.7 1.1 1 0.1 0.1 0.3 0.1 0.5 0.2 0 0 0 0.1 0.1 0.1 0 0 0.1 0 0.1 0 0.1 0 0.2 0.2 0.3 0.2 0 0 0.2 0 0.2 0 0 0 0 0.1 0 0.1 0 0 0.2 0 0.2 0 0.1 0.1 0.1 0.1 0.4 0.2 0.2 0.1 0.4 0.2 0.6 0.2 0.2 0.1 0.5 0.1 0.6 0.1 0 0 0 0.1 0.1 0.1 0.1 0 0.3 0.1 0.5 0.1 0 0 0.5 0 0.5 0 0.1 0.1 0.7 0.3 1 0.4 0.2 0.1 0.4 0.1 0.6 0.1 0.1 0 0.2 0 0.4 0.1 0.1 0 0.2 0 0.4 0.1 0.6 0.1 2.1-0.2 2.9 0 0 0 0.2 0.2 0.2 0.2 0.1 0 0.2 0 0.4 0 0.8 0 1.5-0.2 2.3 0 0.5 0.1 1 0.4 1.3 0.8 0 0 0 0.2 0 0.2 0.1 0.1 0.1 0.1 0.2 0.2 0.1 0.1 0.3 0.2 0.3 0.2 0.2 0.4 0.3 0.8 0.2 1.3 0 0.1 0 0.3-0.1 0.5 0 0-0.1 0-0.1 0.1 0 0.1-0.4 0.5-0.5 0.7 0 0-0.2 0-0.2 0 0 0 0 0.1 0 0.1 0 0-0.2 0-0.2 0 0 0 0 0.1 0 0.1 0 0-0.2 0-0.2 0-0.1 0.1-0.1 0.2-0.3 0.3 0 0-0.2 0-0.2 0 0 0 0 0.1 0 0.1 0 0-0.2 0-0.2 0-0.1 0.2-0.8 0.2-1.4 0.3-0.4 0.1-0.9 0.2-1.3 0.2-0.5 0-1-0.1-1.5-0.2-0.3 0-0.6 0-0.8 0 0 0 0-0.1-0.1-0.1 0 0-0.1 0-0.1 0-0.1 0-0.1 0-0.3-0.1-0.3 0-1-0.2-1.5-0.3-0.9-0.2-1.7-0.4-2.6-0.6-0.2-0.1-0.5-0.1-0.7-0.1 0 0 0-0.1-0.1-0.1 0 0-0.1 0-0.1 0-0.1 0-0.2 0-0.5-0.1 0 0 0-0.1-0.1-0.1-0.1 0-0.4-0.1-0.5-0.1-0.2-0.1-0.4-0.2-0.6-0.2-0.2-0.1-0.3-0.1-0.5-0.1-0.1 0-0.1-0.1-0.1-0.1-0.2-0.1-0.4-0.1-0.6-0.1-0.1 0-0.1-0.1-0.2-0.2-0.1 0-0.2 0-0.3-0.1-0.1 0-0.1-0.1-0.2-0.2-0.2-0.1-0.7-0.3-1-0.5-0.1 0-0.1-0.1-0.2-0.2-0.2-0.1-0.4-0.2-0.6-0.3-0.1 0-0.1-0.1-0.2-0.2-0.1-0.1-0.2-0.2-0.4-0.2-0.4-0.2-0.9-0.8-1.3-1.2-0.1-0.1-0.1-0.1-0.2-0.2-0.2-0.3-0.6-0.7-0.9-1-0.4-0.4-0.8-0.8-1.1-1.3 0-0.1-0.1-0.2-0.1-0.3 0 0-0.2 0-0.2-0.1 0 0 0-0.2 0-0.2 0 0-0.1 0-0.1 0 0 0 0-0.2 0-0.2-0.1-0.1-0.3-0.3-0.4-0.5 0 0 0-0.2 0-0.2-0.1-0.1-0.1-0.1-0.1-0.2 0-0.1-0.1-0.1-0.1-0.1-0.1-0.4-0.2-1-0.3-1.5-0.1-0.7-0.2-1.4-0.3-2.3 0-0.1 0-0.2 0-0.3 0 0 0.1-0.1 0.1-0.1 0-0.1-0.1-0.1-0.1-0.3 0-0.7-0.1-1.3 0-1.8 0 0 0.1 0 0.1-0.1 0-0.1 0-0.1 0-0.2 0 0 0.2-0.2 0.2-0.2 0-0.2 0-0.3 0.1-0.5 0-0.1 0.1-0.2 0.2-0.4 0-0.1 0-0.2 0.1-0.3 0 0 0.2-0.1 0.2-0.1 0.1-0.1 0.1-0.3 0.1-0.5 0-0.1 0-0.2 0.1-0.3 0 0 0.2-0.1 0.2-0.1 0-0.1 0-0.2 0.1-0.3 0.1-0.1 0.1-0.3 0.2-0.5 0 0 0.1 0 0.1-0.1C59.1 43.3 59.4 42.9 59.3 42.5z" fill="#e363aa" data-fill-palette-color="accent"></path></svg></g></svg></g></svg></g></svg></g></svg></g></svg></g><defs></defs></svg><rect width="95.481" height="38.552403530444955" fill="none" stroke="none" visibility="hidden"></rect></g></svg></g></svg>